<svg xmlns="http://www.w3.org/2000/svg" width="1080" height="1080" viewBox="0 0 1080 1080" xml:space="preserve"><path width="100%" height="100%" fill="transparent" d="M0 0HNaNaVNaNaH0V0z"/><g transform="translate(540 540)"/><g transform="translate(540 540)"/><path style="stroke:none;stroke-width:1;stroke-dasharray:none;stroke-linecap:butt;stroke-dashoffset:0;stroke-linejoin:miter;stroke-miterlimit:4;fill:#fff;fill-opacity:0;fill-rule:nonzero;opacity:1" vector-effect="non-scaling-stroke" x="-50" y="-50" rx="0" ry="0" width="100" height="100" fill="none" transform="translate(50 50)" d="M-50 -50H50V50H-50V-50z"/><path style="stroke:none;stroke-width:1;stroke-dasharray:none;stroke-linecap:butt;stroke-dashoffset:0;stroke-linejoin:miter;stroke-miterlimit:4;fill:#000;fill-rule:nonzero;opacity:1" vector-effect="non-scaling-stroke" transform="translate(-5471.338 45.126)scale(11.49)" d="M566.587 27.107s-4.503 -12.943 -29.407 -12.461c-24.932 0.492 -55.313 10.127 -57.568 16.718 -0.079 0.29 -0.308 17.05 -0.308 17.05s15.428 20.334 57.464 23.08c13.268 0.29 17.358 -6.3 18.972 -11.759s10.689 -13.102 11.162 -13.673c0.483 -0.552 -0.315 -18.955 -0.315 -18.955m-3.861 3.054c-7.153 5.546 -9.32 11.742 -9.32 11.742 -2.334 8.67 -7.32 14.128 -21.544 12.207 -36.41 -4.906 -48.696 -21.132 -48.696 -21.132 -0.771 -1.202 -0.473 -2.79 2.256 -3.773 61.48 -22.51 75.716 -7.25 77.312 -3.95 1.606 3.3 1.123 3.3 0 4.915"/><path style="stroke:none;stroke-width:1;stroke-dasharray:none;stroke-linecap:butt;stroke-dashoffset:0;stroke-linejoin:miter;stroke-miterlimit:4;fill:#000;fill-rule:nonzero;opacity:1" vector-effect="non-scaling-stroke" transform="translate(-5362.713 113.768)scale(11.49)" d="M553.81 23.852c0 0.113 -7.302 5.721 -12.655 8.073 -5.371 2.343 -37.296 -0.175 -38.043 0 -1.588 0.36 0 1.018 0 1.018 2.642 1.29 26.766 4.16 32.848 4.59 6.09 0.421 4.23 10.285 4.344 11.812 0.132 1.64 2.106 2.422 2.054 0.72 0 -7.53 10.608 -21.15 12.17 -24.107 1.572 -2.967 -0.718 -2.229 -0.718 -2.106"/></svg>